<svg xmlns="http://www.w3.org/2000/svg" width="48" height="48" version="1.1"><rect style="fill:#5b6d71" id="rect813" width="39" height="36.746" x="4.5" y="5.627"/><g style="stroke-linecap:square;stroke-miterlimit:2;stroke:#003bc3;fill-rule:evenodd;stroke-width:0"><rect style="fill:#2c3e50" id="shape0" width="30.838" height="21.947" x="-39.419" y="-30.972" transform="scale(-1,-1)"/><g style="fill:#f1c40f"><rect id="rect4244" width="2.008" height="5.989" x="-23.006" y="-38.991" transform="scale(-1,-1)"/><rect id="rect4246" width="2.008" height="5.975" x="-19.299" y="-38.972" transform="scale(-1,-1)"/><rect id="rect4248" width="2.008" height="5.964" x="-15.694" y="-38.972" transform="scale(-1,-1)"/><rect id="rect4256" width="2.008" height="5.975" x="-34.399" y="-38.972" transform="scale(-1,-1)"/><rect id="rect4258" width="2.008" height="5.964" x="-30.794" y="-38.972" transform="scale(-1,-1)"/><rect id="rect4260" width="2.008" height="5.964" x="-27.002" y="-38.963" transform="scale(-1,-1)"/></g></g><g style="fill:#fff;stroke:none;line-height:125%;text-align:start;font-family:'Bitstream Vera Sans';font-size:40px;word-spacing:0;letter-spacing:0"><path style="font-weight:700" id="path8124" d="m 18.5032,24.9817 q -0.965878,0.605171 -2.00554,0.907758 -1.03966,0.302587 -2.1464,0.302587 -2.50189,0 -3.96413,-1.79823 -1.46223,-1.80688 -1.46223,-4.89325 0,-3.12096 1.48906,-4.91055 1.48906,-1.78958 4.07815,-1.78958 0.999416,0 1.91164,0.242069 0.918926,0.242069 1.73053,0.717562 v 2.67141 q -0.838437,-0.613819 -1.67017,-0.916406 -0.825022,-0.302585 -1.65675,-0.302585 -1.54272,0 -2.38116,1.11525 -0.831729,1.1066 -0.831729,3.17283 0,2.04894 0.804899,3.16419 0.804899,1.11525 2.28725,1.11525 0.40245,0 0.744532,-0.06052 0.348789,-0.06916 0.623797,-0.207486 v -2.50715 h -1.57626 v -2.23049 h 4.02449 v 6.20734 z"/><path style="font-weight:700" id="path8126" d="m 20.7703,13.0339 6.9691,0 0,2.5158 -4.3867,0 0,2.4034 4.1251,0 0,2.5158 -4.1251,0 0,2.9567 4.5343,0 0,2.5158 -7.1166,0 0,-12.9075 z"/><path style="font-weight:700" id="path8128" d="m 30.1608,13.0339 2.8842,0 3.6422,8.8528 0,-8.8528 2.4482,0 0,12.9075 -2.8842,0 -3.6422,-8.8528 0,8.8528 -2.4482,0 0,-12.9075 z"/></g></svg>