<svg xmlns="http://www.w3.org/2000/svg" xmlns:svg="http://www.w3.org/2000/svg" id="svg2" width="51.2" height="51.2" version="1.1"><metadata id="metadata19"/><g id="layer1" transform="matrix(1.1470163,0,0,0.918538,-3.5282975,1.9552771)"><path id="rect4090" d="M 0,0 0,40 34,40 33.901937,0.01694915 23,0 z" transform="translate(7,4)" style="fill:#2980b9"/><rect id="line2" width="23.362" height="3.181" x="0" y="0" stroke-miterlimit="2.013" transform="translate(12.3038,16.1417)" style="fill:#ecf0f1;fill-rule:evenodd;stroke:#003bc3;stroke-width:0;stroke-linecap:square;stroke-linejoin:miter;stroke-miterlimit:2.01260185"/><rect id="line" width="11.115" height="3.181" x="0" y="0" stroke-miterlimit="2" transform="translate(18.861,9.77954)" style="fill:#ecf0f1;fill-rule:evenodd;stroke:#003bc3;stroke-width:0;stroke-linecap:square;stroke-linejoin:miter;stroke-miterlimit:2"/><rect id="line21" width="13.563" height="3.181" x="0" y="0" stroke-miterlimit="2" transform="translate(12.2953,22.5039)" style="fill:#ecf0f1;fill-rule:evenodd;stroke:#003bc3;stroke-width:0;stroke-linecap:square;stroke-linejoin:miter;stroke-miterlimit:2"/><rect id="line22" width="13.563" height="3.181" x="0" y="0" stroke-miterlimit="2" transform="translate(12.3208,28.8661)" style="fill:#ecf0f1;fill-rule:evenodd;stroke:#003bc3;stroke-width:0;stroke-linecap:square;stroke-linejoin:miter;stroke-miterlimit:2"/><rect id="line23" width="23.362" height="3.181" x="0" y="0" stroke-miterlimit="2" transform="translate(12.3307,35.2282)" style="fill:#ecf0f1;fill-rule:evenodd;stroke:#003bc3;stroke-width:0;stroke-linecap:square;stroke-linejoin:miter;stroke-miterlimit:2"/><rect id="shape0" width="6.573" height="9.538" x="0" y="0" stroke-miterlimit="2.013" transform="translate(29.0863,22.4914)" style="fill:#ecf0f1;fill-rule:evenodd;stroke:#003bc3;stroke-width:0;stroke-linecap:square;stroke-linejoin:miter;stroke-miterlimit:2.01260185"/><rect id="shape01" width="6.378" height="40.004" x="0" y="0" stroke-miterlimit="2.013" transform="translate(6.99873,4.00063)" style="fill:#f1c40f;fill-rule:evenodd;stroke:#003bc3;stroke-width:0;stroke-linecap:square;stroke-linejoin:miter;stroke-miterlimit:2.01260185"/></g></svg>