<svg xmlns="http://www.w3.org/2000/svg" width="48" height="48" version="1.1"><defs id="defs4"><clipPath id="clipPath4200"><rect style="fill:#fff;stroke:none" id="rect4202" width="37.781" height="37.781" x="134.062" y="60.829"/></clipPath><clipPath id="clipPath4196"><rect style="fill:#fff;stroke:none" id="rect4198" width="37.781" height="37.781" x="154.062" y="60.829"/></clipPath></defs><g id="layer1" transform="matrix(1.1470591,0,0,0.91864444,-3.5294177,2.1958052)"><path style="fill:#d40000" id="rect4090" d="M 0,0 0,40 34,40 33.79661,0.01694915 23,0 z" transform="translate(7,4)"/></g><g style="fill-rule:evenodd"><g style="stroke:none"><rect id="rect3990" width="1.567" height="1.119" x="29.642" y="3.052" rx="0" ry=".224" transform="matrix(0.92271433,0.38548446,-0.64253629,0.76625526,0,0)"/><rect id="rect3992" width="1.567" height="1.119" x="6.616" y="-24.574" rx="0" ry=".224" transform="matrix(0.92271433,-0.38548446,-0.64253629,-0.76625526,0,0)"/><path id="path3047" d="m 23.8856,18.0846 -1.9683,-6.0539 -1.9683,-6.0539 4.038,.0006 4.038,.0006 -2.0697,6.0534 z"/><g style="fill:#34495e" id="g18"><rect id="rect3924" width="1.453" height="1.07" x="29.25" y="2.31" rx="0" ry=".214" transform="matrix(0.91279566,0.40841655,-0.61647492,0.78737454,0,0)"/><rect id="rect3926" width="1.453" height="1.07" x="7.592" y="-24.557" rx="0" ry=".214" transform="matrix(0.91279566,-0.40841655,-0.61647492,-0.78737454,0,0)"/><rect id="rect3041" width="1.453" height="1.07" x="29.465" y="2.198" rx="0" ry=".214" transform="matrix(0.91279566,0.40841655,-0.61647492,0.78737454,0,0)"/></g></g><g style="stroke-linecap:square"><g style="stroke:#003bc3;stroke-width:0" id="g25"><g style="stroke-miterlimit:2.013" id="g27"><rect style="fill:#34495e" id="shape0-5" width="5.978" height="17.405" x="21.001" y="16.129"/><rect style="fill:#fff" id="shape1-7" width="3.587" height="1.288" x="21.03" y="16.135"/></g><g style="stroke-miterlimit:2" id="g31"><rect style="fill:#ecf0f1" id="shape2-5" width="3.587" height="1.288" x="23.413" y="17.423"/><g style="fill:#fff" id="g34"><rect id="shape3-3" width="3.587" height="1.288" x="21.03" y="18.714"/><rect id="shape4-0" width="3.587" height="1.288" x="23.414" y="20.002"/><rect id="shape5-3" width="3.587" height="1.288" x="21.027" y="21.294"/><rect id="shape6-5" width="3.587" height="1.288" x="23.41" y="22.583"/><rect id="shape7-9" width="3.587" height="1.288" x="21.027" y="23.874"/><rect id="shape8-7" width="3.587" height="1.288" x="23.41" y="25.162"/><rect id="shape9-0" width="3.587" height="1.288" x="21.003" y="26.453"/><rect id="shape10-7" width="3.587" height="1.288" x="23.386" y="27.742"/></g></g></g><g style="stroke-miterlimit:2"><rect style="fill:#fff;stroke:none;stroke-width:.5" id="shape17-9" width="5.969" height="8.587" x="21.012" y="29.007"/><rect style="stroke:#003bc3;stroke-width:0" id="shape18-4" width="3.499" height="2.031" x="22.251" y="33.864"/></g></g></g></svg>