<svg xmlns="http://www.w3.org/2000/svg" width="48" height="48" version="1.1"><path style="fill:#ecf0f1" id="rect4090" d="m 4.5719,5.628 0,36.7438 38.8357,0 .1643,-36.7458 -12.7288,.0019 z"/><g style="stroke:#003bc3;stroke-width:0;fill-rule:evenodd;stroke-linecap:square"><rect style="fill:#7f8c8d;stroke-miterlimit:2.013" id="line2" width="26.685" height="2.922" x="10.63" y="16.781"/><g style="stroke-miterlimit:2"><g style="fill:#7f8c8d"><rect id="line" width="20.151" height="2.922" x="13.914" y="10.937"/><rect id="line21" width="26.685" height="2.922" x="10.62" y="22.626"/></g><path style="opacity:.6;fill:#ecf0f1" id="rect4205" d="m 14.62,22.6256 18.685,.0003 -.0001,2.9221 -18.685,-.0003 z"/><rect style="fill:#7f8c8d" id="line22" width="26.685" height="2.922" x="10.67" y="28.47"/><path style="opacity:.6;fill:#ecf0f1" id="rect4207" d="m 14.6701,28.4699 18.685,0 0,2.9221 -18.685,0 z"/><rect style="fill:#7f8c8d" id="line23" width="26.685" height="2.922" x="10.661" y="34.314"/><path style="opacity:.6;fill:#ecf0f1" id="rect4209" d="m 14.6604,34.3141 18.685,0 0,2.9221 -18.685,0 z"/><g style="fill:#4d4d4d" id="g16" transform="translate(5.2595024,0)"><rect id="shape1" width="16.32" height="1.718" x="10.58" y="35.465"/><rect id="shape2" width="7.264" height="2.141" x="29.893" y="-19.854" transform="matrix(0,1,-1,0,0,0)"/></g><g style="fill:#2980b9"><rect id="shape11" width="7.798" height="4.07" x="24.029" y="19.82"/><rect id="shape21" width="7.798" height="4.07" x="24.029" y="24.399"/><rect id="shape3" width="7.798" height="4.07" x="24.029" y="28.978"/></g><g style="fill:#3498db"><rect id="rect15" width="7.785" height="4.07" x="16.269" y="19.82"/><rect id="rect17" width="7.785" height="4.07" x="16.269" y="24.399"/><rect id="shape31" width="7.785" height="4.07" x="16.269" y="28.978"/></g><g style="fill:#ecf0f1;fill-opacity:.875"><rect id="shape4" width="1.243" height="2.438" x="16.806" y="20.43"/><rect id="shape5" width="1.243" height="2.438" x="16.806" y="25.01"/><rect id="shape6" width="1.243" height="2.438" x="16.84" y="29.589"/></g></g><path style="opacity:.6;fill:#ecf0f1;stroke-miterlimit:2.013" id="rect4214" d="m 14.62,16.7813 18.685,0 0,2.9221 -18.685,0 z"/><g style="stroke-miterlimit:2"><rect style="fill:#2980b9" id="rect4241" width="7.798" height="4.07" x="24.029" y="15.24"/><rect style="fill:#3498db" id="rect4243" width="7.785" height="4.07" x="16.269" y="15.24"/><rect style="fill:#ecf0f1;fill-opacity:.875" id="rect4245" width="1.243" height="2.438" x="16.806" y="15.85"/></g></g></svg>