<svg xmlns="http://www.w3.org/2000/svg" xmlns:svg="http://www.w3.org/2000/svg" id="svg2" width="51.2" height="51.2" version="1.1"><metadata id="metadata15"/><defs id="defs4"><clipPath id="clipPath4200"><rect id="rect4202" width="37.781" height="37.781" x="134.062" y="60.829" style="fill:#fff;fill-opacity:1;fill-rule:nonzero;stroke:none;display:inline"/></clipPath><clipPath id="clipPath4196"><rect id="rect4198" width="37.781" height="37.781" x="154.062" y="60.829" style="fill:#fff;fill-opacity:1;fill-rule:nonzero;stroke:none;display:inline"/></clipPath></defs><g id="layer1" transform="matrix(1.1470591,0,0,0.91864444,-3.5294177,1.9525339)" style="fill:#5e82d4;fill-opacity:1"><path id="rect4090" d="M 0,0 0,40 34,40 33.79661,0.01694915 23,0 z" transform="translate(7,4)" style="fill:#5e82d4;fill-opacity:1"/></g><g id="g3089" transform="translate(1.7567287,6.811598)"><path id="path3079" d="m 15.106989,13.108543 c 0.11507,-0.253157 0.398022,0.03021 0.420763,0.191254 0.06163,0.43641 -0.430106,0.694684 -0.80327,0.650273 -0.667504,-0.07944 -1.01453,-0.805612 -0.879783,-1.415287 0.197746,-0.894723 1.185266,-1.341239 2.027304,-1.109293 0.951668,0.262143 1.524866,1.23643 1.428836,2.195857" transform="matrix(5.2704541,2.058111,3.5329177,-5.5882085,-103.20309,60.987495)" style="fill:none;stroke:#fefffd;stroke-width:.16501664999999999;stroke-linecap:butt;stroke-linejoin:miter;stroke-opacity:1;stroke-miterlimit:4;stroke-dasharray:none;fill-opacity:1"/><path style="fill:#fff;fill-opacity:1;fill-rule:evenodd;stroke:none" id="rect3081" d="m 40.78125,17.4375 -6.59375,11 1.280452,-0.167314 5.313298,-8.863936 z" transform="translate(0.64872361,-6.811598)"/></g></svg>