<svg xmlns="http://www.w3.org/2000/svg" width="48" height="48" version="1.1"><path style="fill:#bb5cde" id="path3001" d="m 4.5323,5.6497 0,36.6961 38.926,0 .074,-36.7458 -12.6677,.0497 z"/><g id="g3018" transform="matrix(1.1035756,0,0,0.88043476,-2.4851693,0.4048375)"><rect style="fill:#34495e;fill-rule:evenodd;stroke:#003bc3;stroke-linecap:square;stroke-width:0;stroke-miterlimit:2.013" id="shape0" width="5.417" height="19.769" x="21.276" y="5.652"/><rect style="fill:#ecf0f1;fill-rule:evenodd;stroke:#003bc3;stroke-linecap:square;stroke-width:0;stroke-miterlimit:2.013" id="shape1" width="3.25" height="1.463" x="21.303" y="5.658"/><rect style="fill:#ecf0f1;fill-rule:evenodd;stroke:#003bc3;stroke-linecap:square;stroke-width:0;stroke-miterlimit:2" id="shape2" width="3.25" height="1.463" x="23.462" y="7.121"/><rect style="fill:#ecf0f1;fill-rule:evenodd;stroke:#003bc3;stroke-linecap:square;stroke-width:0;stroke-miterlimit:2" id="shape3" width="3.25" height="1.463" x="21.303" y="8.587"/><rect style="fill:#ecf0f1;fill-rule:evenodd;stroke:#003bc3;stroke-linecap:square;stroke-width:0;stroke-miterlimit:2" id="shape4" width="3.25" height="1.463" x="23.462" y="10.051"/><rect style="fill:#ecf0f1;fill-rule:evenodd;stroke:#003bc3;stroke-linecap:square;stroke-width:0;stroke-miterlimit:2" id="shape5" width="3.25" height="1.463" x="21.3" y="11.518"/><rect style="fill:#ecf0f1;fill-rule:evenodd;stroke:#003bc3;stroke-linecap:square;stroke-width:0;stroke-miterlimit:2" id="shape6" width="3.25" height="1.463" x="23.459" y="12.982"/><rect style="fill:#ecf0f1;fill-rule:evenodd;stroke:#003bc3;stroke-linecap:square;stroke-width:0;stroke-miterlimit:2" id="shape7" width="3.25" height="1.463" x="21.3" y="14.448"/><rect style="fill:#ecf0f1;fill-rule:evenodd;stroke:#003bc3;stroke-linecap:square;stroke-width:0;stroke-miterlimit:2" id="shape8" width="3.25" height="1.463" x="23.459" y="15.911"/><rect style="fill:#ecf0f1;fill-rule:evenodd;stroke:#003bc3;stroke-linecap:square;stroke-width:0;stroke-miterlimit:2" id="shape9" width="3.25" height="1.463" x="21.278" y="17.377"/><rect style="fill:#ecf0f1;fill-rule:evenodd;stroke:#003bc3;stroke-linecap:square;stroke-width:0;stroke-miterlimit:2" id="shape10" width="3.25" height="1.463" x="23.437" y="18.841"/><rect style="fill:#ecf0f1;fill-rule:evenodd;stroke:#003bc3;stroke-linecap:square;stroke-width:0;stroke-miterlimit:2" id="shape11" width="3.25" height="1.463" x="21.278" y="20.307"/><rect style="fill:#ecf0f1;fill-rule:evenodd;stroke:#003bc3;stroke-linecap:square;stroke-width:0;stroke-miterlimit:2" id="shape12" width="3.25" height="1.463" x="23.438" y="21.771"/><rect style="fill:#ecf0f1;fill-rule:evenodd;stroke:#003bc3;stroke-linecap:square;stroke-width:0;stroke-miterlimit:2" id="shape13" width="3.25" height="1.463" x="21.275" y="23.238"/><rect style="fill:#ecf0f1;fill-rule:evenodd;stroke:#003bc3;stroke-linecap:square;stroke-width:0;stroke-miterlimit:2" id="shape17" width="5.409" height="9.753" x="21.286" y="24.821"/><rect style="fill:#2c3e50;fill-rule:evenodd;stroke:#003bc3;stroke-linecap:square;stroke-width:0;stroke-miterlimit:2" id="shape18" width="3.171" height="2.307" x="22.426" y="25.795"/></g><g style="fill:#fff"><path id="path4157" d="m 24.3594,41.102 q -0.5625,0.273438 -1.16797,0.410157 -0.605469,0.136718 -1.25,0.136718 -1.45703,0 -2.30859,-0.8125 -0.851562,-0.816406 -0.851562,-2.21094 0,-1.41016 0.867187,-2.21875 0.867188,-0.808594 2.375,-0.808594 0.582032,0 1.11328,0.109375 0.535156,0.109375 1.00781,0.324219 v 1.20703 q -0.488281,-0.277344 -0.972656,-0.414062 -0.480469,-0.136719 -0.964844,-0.136719 -0.898437,0 -1.38672,0.503906 -0.484375,0.5 -0.484375,1.43359 0,0.925781 0.46875,1.42969 0.46875,0.503907 1.33203,0.503907 0.234375,0 0.433593,-0.02734 0.203125,-0.03125 0.363282,-0.09375 v -1.13281 h -0.917969 v -1.00781 h 2.34375 v 2.80469 z"/><path id="path4159" d="m 25.4023,37.1606 3.8164,0 0,.9766 -2.3047,2.3984 2.3047,0 0,1 -3.9141,0 0,-.9766 2.3047,-2.3984 -2.207,0 0,-1 z"/></g></svg>