<svg xmlns="http://www.w3.org/2000/svg" xmlns:svg="http://www.w3.org/2000/svg" id="svg2" width="512" height="512" version="1.1" viewBox="0 0 135.467 135.467"><metadata id="metadata7"/><g id="layer1" transform="translate(0,-161.53332)"><circle id="circle4714-3" cx="67.733" cy="231.764" r="57.061" style="opacity:1;fill:#2d2d2d;fill-opacity:.6245049;stroke:none;stroke-width:0;stroke-miterlimit:4;stroke-dasharray:none;stroke-opacity:1"/><circle style="opacity:1;fill:#2d2d2d;fill-opacity:1;stroke:none;stroke-width:0;stroke-miterlimit:4;stroke-dasharray:none;stroke-opacity:1" id="path4712" cx="67.517" cy="226.809" r="48.183"/><circle id="circle4714" cx="67.733" cy="226.769" r="57.061" style="opacity:1;fill:#2d2d2d;fill-opacity:1;stroke:none;stroke-width:0;stroke-miterlimit:4;stroke-dasharray:none;stroke-opacity:1"/><circle style="opacity:1;fill:#173f7e;fill-opacity:1;stroke:none;stroke-width:0;stroke-miterlimit:4;stroke-dasharray:none;stroke-opacity:1" id="circle4726" cx="67.733" cy="226.769" r="46.1"/><path style="fill:#2980b9;fill-opacity:1;fill-rule:evenodd;stroke:#003bc3;stroke-width:0;stroke-linecap:square;stroke-linejoin:miter;stroke-miterlimit:2.01260185" id="shape5" d="M 260.22656 105.35742 A 140.79153 140.79153 0 0 0 119.43555 246.14844 A 140.79153 140.79153 0 0 0 260.22656 386.93945 A 140.79153 140.79153 0 0 0 401.01758 246.14844 A 140.79153 140.79153 0 0 0 260.22656 105.35742 z M 262.09961 177.09961 C 299.43337 177.09961 329.69922 207.36546 329.69922 244.69922 C 329.69922 282.03298 299.43337 312.29688 262.09961 312.29688 C 224.76585 312.29688 194.50195 282.03298 194.50195 244.69922 C 194.50195 207.36546 224.76585 177.09961 262.09961 177.09961 z" transform="matrix(0.26458333,0,0,0.26458333,0,161.53332)"/><path style="fill:#bdc3c7;fill-rule:evenodd;stroke:#003bc3;stroke-width:0;stroke-linecap:square;stroke-linejoin:miter;stroke-miterlimit:2" id="shape6" stroke-miterlimit="2" d="m 91.229371,215.72388 c 0,-7.21914 -5.85229,-13.07143 -13.07143,-13.07143 -7.21913,0 -13.07126,5.85229 -13.07126,13.07143 0,7.21913 5.85213,13.07126 13.07126,13.07126 7.21914,0 13.07143,-5.85213 13.07143,-13.07126"/></g></svg>