<svg xmlns="http://www.w3.org/2000/svg" xmlns:xlink="http://www.w3.org/1999/xlink" width="51.2" height="51.2"><g id="layer1"><rect id="shape0" width="41.19" height="32.016" fill="#34495e" fill-rule="evenodd" stroke="#003bc3" stroke-linecap="square" stroke-linejoin="miter" stroke-miterlimit="2.013" stroke-width="0" rx="2.074" ry="2.171" transform="translate(4.54304, 8.02025)"/><rect id="shape1" width="37.458" height="22.684" fill="#2980b9" fill-rule="evenodd" stroke="#003bc3" stroke-linecap="square" stroke-linejoin="miter" stroke-miterlimit="2" stroke-width="0" transform="translate(6.32342, 11.5443)"/><rect id="shape2" width="49.245" height="3.824" fill="#95a5a6" fill-rule="evenodd" stroke="#003bc3" stroke-linecap="square" stroke-linejoin="miter" stroke-miterlimit="2" stroke-width="0" rx="1.825" ry="1.815" transform="translate(0.920916, 35.7873)"/><rect id="shape3" width="49.245" height="1.683" fill="#95a5a6" fill-rule="evenodd" stroke="#003bc3" stroke-linecap="square" stroke-linejoin="miter" stroke-miterlimit="2" stroke-width="0" transform="translate(0.915283, 35.7826)"/><rect id="shape4" width="11.984" height="1.118" fill="#bdc3c7" fill-rule="evenodd" stroke="#003bc3" stroke-linecap="square" stroke-linejoin="miter" stroke-miterlimit="2" stroke-width="0" transform="translate(18.3563, 35.7722)"/><circle id="shape5" cx=".945" cy=".945" r=".945" fill="#2980b9" fill-rule="evenodd" stroke="#003bc3" stroke-linecap="square" stroke-linejoin="miter" stroke-miterlimit="2.013" stroke-width="0" transform="translate(22.8745, 8.79924)"/><path id="shape51" fill="#34495e" fill-rule="evenodd" stroke="#003bc3" stroke-linecap="square" stroke-linejoin="miter" stroke-miterlimit="2" stroke-width="0" d="M0.850633 0.425316C0.850633 0.190421 0.660212 1.43832e-17 0.425316 0C0.190421 -1.43832e-17 2.87664e-17 0.190421 0 0.425316C-2.87664e-17 0.660212 0.190421 0.850633 0.425316 0.850633C0.660212 0.850633 0.850633 0.660212 0.850633 0.425316" transform="translate(23.3468, 9.25063)"/><path id="shape6" fill="#bdc3c7" fill-rule="evenodd" stroke="#003bc3" stroke-linecap="square" stroke-linejoin="miter" stroke-miterlimit="2" stroke-width="0" d="M0.621671 0.310836C0.621671 0.139166 0.482505 1.05117e-17 0.310836 0C0.139166 -1.05117e-17 2.10235e-17 0.139166 0 0.310836C-2.10235e-17 0.482505 0.139166 0.621671 0.310836 0.621671C0.482505 0.621671 0.621671 0.482505 0.621671 0.310836" transform="translate(23.6708, 9.11417)"/></g></svg>