<svg xmlns="http://www.w3.org/2000/svg" xmlns:xlink="http://www.w3.org/1999/xlink" width="51.2" height="51.2"><g id="layer1"><rect id="shape0" width="6.351" height="12.119" fill="#c4cbcf" fill-rule="evenodd" stroke="#003bc3" stroke-linecap="square" stroke-linejoin="miter" stroke-miterlimit="2.013" stroke-width="0" transform="translate(18.2027, 34.35)"/><rect id="shape1" width="6.351" height="12.119" fill="#a8b2b8" fill-rule="evenodd" stroke="#003bc3" stroke-linecap="square" stroke-linejoin="miter" stroke-miterlimit="2" stroke-width="0" transform="translate(24.1571, 34.35)"/><rect id="shape2" width="22.023" height="35.957" fill="#34495e" fill-rule="evenodd" stroke="#003bc3" stroke-linecap="square" stroke-linejoin="miter" stroke-miterlimit="2.013" stroke-width="0" rx="5.703" ry="4.71" transform="translate(13.6828, 1.22708)"/><rect id="shape3" width="3.345" height="2.016" fill="#4d4d4d" fill-rule="evenodd" stroke="#003bc3" stroke-linecap="square" stroke-linejoin="miter" stroke-miterlimit="2.013" stroke-width="0" transform="translate(19.5913, 40.9871)"/><rect id="shape4" width="3.368" height="2.016" fill="#4d4d4d" fill-rule="evenodd" stroke="#003bc3" stroke-linecap="square" stroke-linejoin="miter" stroke-miterlimit="2" stroke-width="0" transform="translate(25.7781, 40.9871)"/><rect id="rect1933" width="3.434" height="3.442" fill="#fff" stroke="#fff" stroke-linecap="butt" stroke-linejoin="miter" stroke-miterlimit="0" stroke-width="0" transform="matrix(1.76045e-16 -1 1 1.76045e-16 26.6154 13.7337)"/><path id="path2830" fill="#fff" stroke="#fff" stroke-linecap="butt" stroke-linejoin="miter" stroke-miterlimit="0" stroke-width="0" d="M4.68084 2.34137C4.6811 3.63439 3.63318 4.68274 2.34041 4.68274C1.04765 4.68274 -0.000262717 3.63439 4.9406e-08 2.34137C-0.000262717 1.04834 1.04765 0 2.34041 0C3.63318 0 4.6811 1.04834 4.68084 2.34137Z" transform="matrix(1.76045e-16 -1 1 1.76045e-16 21.8234 30.5729)"/><path id="path4602" fill="#fff" stroke="#fff" stroke-linecap="butt" stroke-linejoin="miter" stroke-miterlimit="0" stroke-width="0" d="M3.11475 1.55801C3.11492 2.41842 2.41761 3.11601 1.55737 3.11601C0.697136 3.11601 -0.000174819 2.41842 3.2876e-08 1.55801C-0.000174819 0.697595 0.697136 0 1.55737 0C2.41761 0 3.11492 0.697595 3.11475 1.55801Z" transform="matrix(1.76045e-16 -1 1 1.76045e-16 18.5557 17.3575)"/><path id="path4608" fill="#fff" fill-rule="evenodd" stroke="#fff" stroke-linecap="butt" stroke-linejoin="miter" stroke-miterlimit="0" stroke-width="0" d="M0 0C0 0 3.14874 1.46419 3.10138 1.5002C3.05403 1.5362 0 2.95239 0 2.95239Z" transform="matrix(1.76045e-16 -1 1 1.76045e-16 22.6836 8.57027)"/><path id="path2766" fill="none" stroke="#fff" stroke-linecap="butt" stroke-linejoin="miter" stroke-miterlimit="0" stroke-width=".638" d="M0 4.00224C2.77111 3.74317 4.16916 0 5.77687 0C6.86387 0 7.33942 0.0499966 8.72261 0.0499966" transform="matrix(1.76045e-16 -1 1 1.76045e-16 20.1067 25.1978)"/><path id="path3653" fill="none" stroke="#fff" stroke-linecap="butt" stroke-linejoin="miter" stroke-miterlimit="0" stroke-width=".638" d="M0 0C2.8682 0 3.54372 2.69764 5.66536 4.03486C6.02484 4.23909 9.26713 4.10631 9.47437 4.10631" transform="matrix(1.76045e-16 -1 1 1.76045e-16 24.1418 21.9256)"/><path id="path5436" fill="none" stroke="#fff" stroke-linecap="butt" stroke-linejoin="miter" stroke-miterlimit="0" stroke-width=".638" d="M0 0L20.3876 0" transform="matrix(1.76045e-16 -1 1 1.76045e-16 24.1335 28.1572)"/></g></svg>