<svg xmlns="http://www.w3.org/2000/svg" xmlns:svg="http://www.w3.org/2000/svg" id="Drive-Internal" width="1024" height="1024" x="0" y="0" style="background-color:#fff" enable-background="new 0 0 1024 1024" image-rendering="optimizeSpeed" version="1.1" viewBox="0 0 1024 1024"><metadata id="metadata26"/><g id="Calque.__203"><g id="shape2"><path id="path1" fill="#374268" fill-opacity="1" d="M884.5,55.7 Q869.85,41.05 849.15,41.05 L174.95,41.05 C161.15,41.05 149.35,45.95 139.6,55.7 130.15,65.15 125.25,76.55 124.95,89.8 L124.95,89.775 L124.95,814.35 C125.25,827.6 130.15,838.95 139.6,848.4 149.35,858.15 161.15,863.05 174.95,863.05 L849.15,863.05 C862.95,863.05 874.75,858.15 884.5,848.4 893.95,838.95 898.85,827.6 899.15,814.35 L899.15,89.775 L899.15,89.8 C898.85,76.55 893.95,65.15 884.5,55.7z"/><path id="path2" fill="#86837C" fill-opacity=".988" d="M139.6,848.4 C130.15,838.95 125.25,827.6 124.95,814.35 L124.95,933.05 C124.95,946.85 129.85,958.65 139.6,968.4 149.35,978.15 161.15,983.05 174.95,983.05 L849.15,983.05 C862.95,983.05 874.75,978.15 884.5,968.4 894.25,958.65 899.15,946.85 899.15,933.05 L899.15,814.35 C898.85,827.6 893.95,838.95 884.5,848.4 874.75,858.15 862.95,863.05 849.15,863.05 L174.95,863.05 C161.15,863.05 149.35,858.15 139.6,848.4z"/></g></g><g id="Calque.__202" transform="matrix(1,0,0,0.97068671,-20.709839,7.925825)"><g id="shape"><path id="path" d="M 919.15,109.8 Q 918.7,89.9 904.5,75.7 C 894.75,65.95 882.95,61.05 869.15,61.05 l -674.2,0 c -13.8,0 -25.6,4.9 -35.35,14.65 -9.45,9.45 -14.35,20.85 -14.65,34.1 l 0,843.25 c 0,13.8 4.9,25.6 14.65,35.35 9.75,9.75 21.55,14.65 35.35,14.65 l 674.2,0 c 13.8,0 25.6,-4.9 35.35,-14.65 9.75,-9.75 14.65,-21.55 14.65,-35.35 l 0,-843.25 z" style="fill:#000;fill-opacity:.09803922"/></g></g><g id="shape10"><path style="fill:#fff;fill-opacity:.09803922" id="path6" d="m 703.4,642 q 79.25,-79.25 79.25,-191.35 c 0,-74.75 -26.4,-138.5 -79.25,-191.35 -52.85,-52.85 -116.6,-79.25 -191.35,-79.25 -74.75,0 -138.5,26.4 -191.35,79.25 -52.85,52.85 -79.25,116.6 -79.25,191.35 0,74.75 26.4,138.5 79.25,191.35 52.85,52.85 116.6,79.25 191.35,79.25 74.75,0 138.5,-26.4 191.35,-79.25 z"/></g><g id="Calque.__204" transform="matrix(1.7675686,0,0,1,-103.09208,-4)"><g id="Symbole.__2026_1" style="overflow:visible"><g id="Calque.__208"><g id="shape17"><path id="path11" d="m 518,918 q 0,-8.3 -5.85,-14.15 C 508.25,899.95 503.55,898 498,898 l -302,0 c -5.55,0 -10.25,1.95 -14.15,5.85 -3.9,3.9 -5.85,8.6 -5.85,14.15 l 0,8.2 c 0,5.55 1.95,10.25 5.85,14.15 3.9,3.9 8.6,5.85 14.15,5.85 l 302,0 c 5.55,0 10.25,-1.95 14.15,-5.85 3.9,-3.9 5.85,-8.6 5.85,-14.15 l 0,-8.2 z" style="fill:#3b3a36;fill-opacity:1"/></g></g></g></g></svg>