<svg xmlns="http://www.w3.org/2000/svg" xmlns:xlink="http://www.w3.org/1999/xlink" width="51.2" height="51.2"><g id="layer1"><rect id="shape0" width="27.654" height="18.573" fill="#bdc3c7" fill-rule="evenodd" stroke="#003bc3" stroke-linecap="square" stroke-linejoin="miter" stroke-miterlimit="2.013" stroke-width="0" transform="translate(10.8203, 14.5569)"/><path id="shape1" fill="#bdc3c7" fill-rule="evenodd" stroke="#003bc3" stroke-linecap="square" stroke-linejoin="miter" stroke-miterlimit="2.013" stroke-width="0" d="M19.4498 9.15558C18.7468 3.50933 14.0309 -0.5171 8.7897 0.0539293C3.54849 0.624959 -0.330101 5.58775 0.0222151 11.2722C0.374532 16.9567 4.83085 21.3152 10.0956 21.1246C15.3604 20.934 19.5372 16.2628 19.5372 10.5656" transform="translate(1.19307, 14.5417)"/><path id="shape2" fill="#bdc3c7" fill-rule="evenodd" stroke="#003bc3" stroke-linecap="square" stroke-linejoin="miter" stroke-miterlimit="2" stroke-width="0" d="M0 10.569C0.00134316 16.1776 4.16446 20.8077 9.48275 21.1153C14.801 21.4229 19.4207 17.3008 20.0054 11.7261C20.5901 6.15128 16.936 1.06701 11.6822 0.145095C6.4283 -0.776817 1.406 2.78499 0.242361 8.25817" transform="translate(26.8493, 14.5526)"/><path id="shape3" fill="#7f8c8d" fill-rule="evenodd" stroke="#003bc3" stroke-linecap="square" stroke-linejoin="miter" stroke-miterlimit="2" stroke-width="0" d="M0 7.48678C0.000951459 11.4598 2.95 14.7396 6.71734 14.9575C10.4847 15.1754 13.7571 12.2555 14.1713 8.30644C14.5855 4.35741 11.997 0.75584 8.27535 0.102781C4.55365 -0.550278 0.995975 1.97281 0.171683 5.84988" transform="translate(29.9117, 17.733)"/><rect id="shape4" width="3.869" height="12.42" fill="#34495e" fill-rule="evenodd" stroke="#003bc3" stroke-linecap="square" stroke-linejoin="miter" stroke-miterlimit="2.013" stroke-width="0" transform="translate(8.93816, 19.2013)"/><rect id="shape5" width="3.869" height="12.42" fill="#34495e" fill-rule="evenodd" stroke="#003bc3" stroke-linecap="square" stroke-linejoin="miter" stroke-miterlimit="2" stroke-width="0" transform="matrix(-5.82867e-16 1 -1 -5.82867e-16 16.5737 23.2418)"/><rect id="shape6" width="1.632" height="4.079" fill="#34495e" fill-rule="evenodd" stroke="#003bc3" stroke-linecap="square" stroke-linejoin="miter" stroke-miterlimit="2.013" stroke-width="0" rx=".816" ry=".816" transform="matrix(0.707107 0.707107 -0.707107 0.707107 22.1056 23.1644)"/><rect id="shape7" width="1.632" height="4.079" fill="#34495e" fill-rule="evenodd" stroke="#003bc3" stroke-linecap="square" stroke-linejoin="miter" stroke-miterlimit="2" stroke-width="0" rx=".816" ry=".816" transform="matrix(0.707107 0.707107 -0.707107 0.707107 26.7848 23.2319)"/><rect id="shape8" width="11.982" height="5.184" fill="#ecf0f1" fill-rule="evenodd" stroke="#003bc3" stroke-linecap="square" stroke-linejoin="miter" stroke-miterlimit="2.013" stroke-width="0" rx="2.592" ry="2.592" transform="matrix(0.707107 -0.707107 0.707107 0.707107 29.4592 25.1499)"/><path id="shape9" fill="#27ae60" fill-rule="evenodd" stroke="#003bc3" stroke-linecap="square" stroke-linejoin="miter" stroke-miterlimit="2" stroke-width="0" d="M3.9679 1.98395C3.9679 0.888245 3.07966 6.70926e-17 1.98395 0C0.888245 -6.70926e-17 1.34185e-16 0.888245 0 1.98395C-1.34185e-16 3.07966 0.888245 3.9679 1.98395 3.9679C3.07966 3.9679 3.9679 3.07966 3.9679 1.98395" transform="matrix(0.707107 -0.707107 0.707107 0.707107 30.133 25.1373)"/><path id="shape10" fill="#2980b9" fill-rule="evenodd" stroke="#003bc3" stroke-linecap="square" stroke-linejoin="miter" stroke-miterlimit="2" stroke-width="0" d="M3.9679 1.98395C3.9679 0.888245 3.07966 6.70926e-17 1.98395 0C0.888245 -6.70926e-17 1.34185e-16 0.888245 0 1.98395C-1.34185e-16 3.07966 0.888245 3.9679 1.98395 3.9679C3.07966 3.9679 3.9679 3.07966 3.9679 1.98395" transform="matrix(0.707107 -0.707107 0.707107 0.707107 34.6031 20.6421)"/><rect id="shape11" width="11.982" height="5.184" fill="#ecf0f1" fill-rule="evenodd" stroke="#003bc3" stroke-linecap="square" stroke-linejoin="miter" stroke-miterlimit="2" stroke-width="0" rx="2.592" ry="2.592" transform="matrix(0.707107 -0.707107 0.707107 0.707107 33.4001 29.6511)"/><path id="shape12" fill="#f39c12" fill-rule="evenodd" stroke="#003bc3" stroke-linecap="square" stroke-linejoin="miter" stroke-miterlimit="2" stroke-width="0" d="M3.9679 1.98395C3.9679 0.888245 3.07966 6.70926e-17 1.98395 0C0.888245 -6.70926e-17 1.34185e-16 0.888245 0 1.98395C-1.34185e-16 3.07966 0.888245 3.9679 1.98395 3.9679C3.07966 3.9679 3.9679 3.07966 3.9679 1.98395" transform="matrix(0.707107 -0.707107 0.707107 0.707107 34.0739 29.6082)"/><path id="shape13" fill="#c0392b" fill-rule="evenodd" stroke="#003bc3" stroke-linecap="square" stroke-linejoin="miter" stroke-miterlimit="2" stroke-width="0" d="M3.9679 1.98395C3.9679 0.888245 3.07966 6.70926e-17 1.98395 0C0.888245 -6.70926e-17 1.34185e-16 0.888245 0 1.98395C-1.34185e-16 3.07966 0.888245 3.9679 1.98395 3.9679C3.07966 3.9679 3.9679 3.07966 3.9679 1.98395" transform="matrix(0.707107 -0.707107 0.707107 0.707107 38.544 25.1433)"/></g></svg>